<?xml version="1.0" encoding="iso-8859-1"?>
<!-- Generator: Adobe Illustrator 19.0.0, SVG Export Plug-In . SVG Version: 6.00 Build 0)  -->
<svg version="1.1" id="Capa_1" xmlns="http://www.w3.org/2000/svg" xmlns:xlink="http://www.w3.org/1999/xlink" x="0px" y="0px"
	 viewBox="0 0 409.6 409.6" style="enable-background:new 0 0 409.6 409.6;" xml:space="preserve">
<g>
	<rect x="44.308" y="286.525" style="fill:#2F4859;" width="40.279" height="19.456"/>
	<rect x="328.653" y="286.525" style="fill:#2F4859;" width="40.279" height="19.456"/>
</g>
<path style="fill:#64798A;" d="M397.559,127.803H12.041C5.391,127.803,0,133.194,0,139.844v135.662
	c0,6.65,5.391,12.041,12.041,12.041h385.518c6.65,0,12.041-5.391,12.041-12.041V139.844
	C409.6,133.194,404.209,127.803,397.559,127.803z"/>
<circle style="fill:#2F4859;" cx="208.896" cy="190.71" r="87.091"/>
<circle style="fill:#EBF0F3;" cx="208.896" cy="190.71" r="71.214"/>
<circle style="fill:#27A2DB;" cx="208.896" cy="190.71" r="47.053"/>
<circle style="fill:#D5D6DB;" cx="208.896" cy="190.71" r="22.892"/>
<circle style="fill:#FFFFFF;" cx="175.206" cy="157.01" r="10.808"/>
<g>
	<path style="fill:#2F4859;" d="M387.086,218.171h-75.712c-3.256,0-5.92-2.664-5.92-5.92v-7.104c0-3.256,2.664-5.92,5.92-5.92
		h75.712c3.256,0,5.92,2.664,5.92,5.92v7.104C393.006,215.507,390.342,218.171,387.086,218.171z"/>
	<path style="fill:#2F4859;" d="M387.086,178.235h-75.712c-3.256,0-5.92-2.664-5.92-5.92v-7.104c0-3.256,2.664-5.92,5.92-5.92
		h75.712c3.256,0,5.92,2.664,5.92,5.92v7.104C393.006,175.571,390.342,178.235,387.086,178.235z"/>
	<path style="fill:#2F4859;" d="M387.086,256.059h-75.712c-3.256,0-5.92-2.664-5.92-5.92v-7.104c0-3.256,2.664-5.92,5.92-5.92
		h75.712c3.256,0,5.92,2.664,5.92,5.92v7.104C393.006,253.395,390.342,256.059,387.086,256.059z"/>
	<path style="fill:#2F4859;" d="M98.225,218.171H22.513c-3.256,0-5.92-2.664-5.92-5.92v-7.104c0-3.256,2.664-5.92,5.92-5.92h75.712
		c3.256,0,5.92,2.664,5.92,5.92v7.104C104.145,215.507,101.481,218.171,98.225,218.171z"/>
	<path style="fill:#2F4859;" d="M98.225,178.235H22.513c-3.256,0-5.92-2.664-5.92-5.92v-7.104c0-3.256,2.664-5.92,5.92-5.92h75.712
		c3.256,0,5.92,2.664,5.92,5.92v7.104C104.145,175.571,101.481,178.235,98.225,178.235z"/>
	<path style="fill:#2F4859;" d="M98.225,256.059H22.513c-3.256,0-5.92-2.664-5.92-5.92v-7.104c0-3.256,2.664-5.92,5.92-5.92h75.712
		c3.256,0,5.92,2.664,5.92,5.92v7.104C104.145,253.395,101.481,256.059,98.225,256.059z"/>
</g>
<g>
</g>
<g>
</g>
<g>
</g>
<g>
</g>
<g>
</g>
<g>
</g>
<g>
</g>
<g>
</g>
<g>
</g>
<g>
</g>
<g>
</g>
<g>
</g>
<g>
</g>
<g>
</g>
<g>
</g>
</svg>
