<?xml version="1.0"?>
<svg xmlns="http://www.w3.org/2000/svg" enable-background="new 0 0 46 60" height="512px" viewBox="0 0 46 60" width="512px" class=""><g><path d="m34 13h-22c-.552 0-1-.448-1-1v-5.47c0-1.947 1.584-3.53 3.53-3.53h2.559c.744 0 1.455-.362 1.901-.969.937-1.272 2.436-2.031 4.01-2.031s3.073.759 4.009 2.031c.447.607 1.158.969 1.902.969h2.559c1.947 0 3.53 1.583 3.53 3.53v5.47c0 .552-.448 1-1 1zm-21-2h20v-4.47c0-.843-.687-1.53-1.53-1.53h-2.559c-1.377 0-2.69-.667-3.512-1.783-.57-.774-1.444-1.217-2.399-1.217s-1.829.443-2.399 1.217c-.821 1.116-2.134 1.783-3.512 1.783h-2.559c-.843 0-1.53.687-1.53 1.53z" data-original="#000000" class="active-path" data-old_color="#000000" fill="#FFFFFF"/><path d="m25 10h-4c-.552 0-1-.448-1-1v-4c0-.552.448-1 1-1h4c.552 0 1 .448 1 1v4c0 .552-.448 1-1 1zm-3-2h2v-2h-2z" data-original="#000000" class="active-path" data-old_color="#000000" fill="#FFFFFF"/><path d="m39 56h-32c-1.654 0-3-1.346-3-3v-41c0-1.654 1.346-3 3-3h5c.552 0 1 .448 1 1v1h20v-1c0-.552.448-1 1-1h5c1.654 0 3 1.346 3 3l-.022 41.226c0 .036-.002.072-.006.108-.172 1.52-1.449 2.666-2.972 2.666zm-32-45c-.552 0-1 .449-1 1v41c0 .551.448 1 1 1h32c.489 0 .902-.36.978-.844l.022-13.823v-27.333c0-.551-.449-1-1-1h-4v1c0 .552-.448 1-1 1h-22c-.552 0-1-.448-1-1v-1zm33.978 42.223h.01z" data-original="#000000" class="active-path" data-old_color="#000000" fill="#FFFFFF"/><path d="m41 60h-36c-2.757 0-5-2.243-5-5v-45c0-2.757 2.243-5 5-5h7c.552 0 1 .448 1 1v5h20v-5c0-.552.448-1 1-1h7c2.757 0 5 2.243 5 5v45c0 2.757-2.243 5-5 5zm-36-53c-1.654 0-3 1.346-3 3v45c0 1.654 1.346 3 3 3h36c1.654 0 3-1.346 3-3v-45c0-1.654-1.346-3-3-3h-6v5c0 .552-.448 1-1 1h-22c-.552 0-1-.448-1-1v-5z" data-original="#000000" class="active-path" data-old_color="#000000" fill="#FFFFFF"/><path d="m37 42h-28c-.358 0-.689-.191-.867-.502s-.177-.692.003-1.002l14-24c.358-.615 1.369-.615 1.728 0l14 24c.181.31.182.691.003 1.002s-.509.502-.867.502zm-26.259-2h24.518l-12.259-21.015z" data-original="#000000" class="active-path" data-old_color="#000000" fill="#FFFFFF"/><path d="m23 33c-.552 0-1-.448-1-1v-8c0-.552.448-1 1-1s1 .448 1 1v8c0 .552-.448 1-1 1z" data-original="#000000" class="active-path" data-old_color="#000000" fill="#FFFFFF"/><path d="m23 38c-.552 0-1-.448-1-1v-1c0-.552.448-1 1-1s1 .448 1 1v1c0 .552-.448 1-1 1z" data-original="#000000" class="active-path" data-old_color="#000000" fill="#FFFFFF"/><path d="m32 47h-23c-.552 0-1-.448-1-1s.448-1 1-1h23c.552 0 1 .448 1 1s-.448 1-1 1z" data-original="#000000" class="active-path" data-old_color="#000000" fill="#FFFFFF"/><path d="m37 47h-1c-.552 0-1-.448-1-1s.448-1 1-1h1c.552 0 1 .448 1 1s-.448 1-1 1z" data-original="#000000" class="active-path" data-old_color="#000000" fill="#FFFFFF"/><path d="m37 51h-23c-.552 0-1-.448-1-1s.448-1 1-1h23c.552 0 1 .448 1 1s-.448 1-1 1z" data-original="#000000" class="active-path" data-old_color="#000000" fill="#FFFFFF"/><path d="m10 51h-1c-.552 0-1-.448-1-1s.448-1 1-1h1c.552 0 1 .448 1 1s-.448 1-1 1z" data-original="#000000" class="active-path" data-old_color="#000000" fill="#FFFFFF"/></g> </svg>
