<svg height="512pt" viewBox="-36 0 512 512" width="512pt" xmlns="http://www.w3.org/2000/svg"><path d="m177.09375 54.246094h36.476562v49.75h-36.476562zm0 0" fill="#bfbfbf"/><path d="m139.535156 54.847656v-49.699218c0-2.84375 2.304688-5.148438 5.148438-5.148438h101.300781c2.84375 0 5.148437 2.304688 5.148437 5.148438v49.699218c0 2.84375-2.304687 5.148438-5.148437 5.148438h-101.300781c-2.84375 0-5.148438-2.304688-5.148438-5.148438zm0 0" fill="#838383"/><path d="m233.796875 59.996094v-59.996094h12.1875c2.84375 0 5.148437 2.304688 5.148437 5.148438v49.699218c0 2.84375-2.304687 5.148438-5.148437 5.148438zm0 0" fill="#5a5a5a"/><path d="m195.332031 59.996094h18.238281v38.25h-18.238281zm0 0" fill="#acacac"/><path d="m435.40625 131.445312h-160.078125l-7.003906-18.210937h136.191406c4.144531 0 7.5-3.355469 7.5-7.5 0-4.140625-3.355469-7.5-7.5-7.5l-256.410156.015625c-2.84375 0-5.148438 2.304688-5.148438 5.148438v88.601562h297.601563v-55.40625c0-2.84375-2.308594-5.148438-5.152344-5.148438zm0 0" fill="#838383"/><path d="m85.945312 329.414062-83.496093-51.886718c-2.371094-1.460938-3.152344-4.542969-1.757813-6.957032l8.847656-15.339843c1.460938-2.527344 4.730469-3.339844 7.203126-1.785157l69.203124 43.839844zm0 0" fill="#ffcd6b"/><path d="m85.945312 445.460938-83.496093-51.886719c-2.371094-1.460938-3.152344-4.542969-1.757813-6.957031l8.847656-15.339844c1.460938-2.53125 4.730469-3.339844 7.203126-1.785156l69.203124 43.839843zm0 0" fill="#ffcd6b"/><path d="m151.277344 512h-76.121094v-329.871094c0-2.847656 2.304688-5.152344 5.148438-5.152344h70.972656zm0 0" fill="#bfbfbf"/><path d="m119.308594 176.976562h23.648437v335.023438h-23.648437zm0 0" fill="#acacac"/><path d="m142.957031 176.976562h297.601563v335.023438h-297.601563zm0 0" fill="#ffcd6b"/><path d="m417.511719 176.976562h23.046875v335.023438h-23.046875zm0 0" fill="#ffc143"/><path d="m142.957031 332.914062h297.601563v89.78125h-297.601563zm0 0" fill="#838383"/><path d="m142.957031 422.21875h297.601563v89.78125h-297.601563zm0 0" fill="#838383"/><path d="m417.511719 332.914062h23.046875v89.78125h-23.046875zm0 0" fill="#5a5a5a"/><path d="m417.511719 422.21875h23.046875v89.78125h-23.046875zm0 0" fill="#5a5a5a"/><path d="m334.941406 367.324219h-86.367187c-2.84375 0-5.152344-2.304688-5.152344-5.148438v-29.261719h96.667969v29.261719c0 2.84375-2.304688 5.148438-5.148438 5.148438zm0 0" fill="#bfbfbf"/><path d="m334.941406 456.628906h-86.367187c-2.84375 0-5.152344-2.308594-5.152344-5.152344v-29.257812h96.667969v29.257812c0 2.84375-2.304688 5.152344-5.148438 5.152344zm0 0" fill="#bfbfbf"/><path d="m334.941406 367.324219h-15.226562v-34.410157h20.375v29.261719c0 2.84375-2.304688 5.148438-5.148438 5.148438zm0 0" fill="#acacac"/><path d="m334.941406 456.628906h-15.226562v-34.410156h20.375v29.257812c0 2.84375-2.304688 5.152344-5.148438 5.152344zm0 0" fill="#acacac"/><path d="m142.957031 176.976562h297.601563v103.972657h-297.601563zm0 0" fill="#bfbfbf"/><path d="m417.511719 176.976562h23.046875v103.972657h-23.046875zm0 0" fill="#acacac"/><path d="m257.230469 247.628906h-66.117188c-2.84375 0-5.148437-2.304687-5.148437-5.148437v-27.035157c0-2.84375 2.304687-5.148437 5.148437-5.148437h66.117188c2.84375 0 5.148437 2.304687 5.148437 5.148437v27.035157c.003906 2.84375-2.304687 5.148437-5.148437 5.148437zm0 0" fill="#9ae7fd"/><path d="m257.230469 247.628906h-13.808594v-37.332031h13.808594c2.84375 0 5.148437 2.304687 5.148437 5.148437v27.035157c.003906 2.84375-2.304687 5.148437-5.148437 5.148437zm0 0" fill="#64dcfc"/><g fill="#838383"><path d="m296.804688 216.992188c0 3.558593-2.886719 6.441406-6.445313 6.441406-3.554687 0-6.441406-2.882813-6.441406-6.441406 0-3.558594 2.886719-6.441407 6.441406-6.441407 3.558594 0 6.445313 2.882813 6.445313 6.441407zm0 0"/><path d="m319.714844 216.992188c0 3.558593-2.886719 6.441406-6.441406 6.441406-3.558594 0-6.445313-2.882813-6.445313-6.441406 0-3.558594 2.886719-6.441407 6.445313-6.441407 3.554687 0 6.441406 2.882813 6.441406 6.441407zm0 0"/><path d="m342.625 216.992188c0 3.558593-2.882812 6.441406-6.441406 6.441406s-6.441406-2.882813-6.441406-6.441406c0-3.558594 2.882812-6.441407 6.441406-6.441407s6.441406 2.882813 6.441406 6.441407zm0 0"/><path d="m296.804688 240.933594c0 3.558594-2.886719 6.441406-6.445313 6.441406-3.554687 0-6.441406-2.882812-6.441406-6.441406s2.886719-6.441406 6.441406-6.441406c3.558594 0 6.445313 2.882812 6.445313 6.441406zm0 0"/><path d="m319.714844 240.933594c0 3.558594-2.886719 6.441406-6.441406 6.441406-3.558594 0-6.445313-2.882812-6.445313-6.441406s2.886719-6.441406 6.445313-6.441406c3.554687 0 6.441406 2.882812 6.441406 6.441406zm0 0"/><path d="m342.625 240.933594c0 3.558594-2.882812 6.441406-6.441406 6.441406s-6.441406-2.882812-6.441406-6.441406 2.882812-6.441406 6.441406-6.441406 6.441406 2.882812 6.441406 6.441406zm0 0"/></g><path d="m402.59375 228.964844c0 10.179687-8.253906 18.429687-18.433594 18.429687-10.179687 0-18.433594-8.25-18.433594-18.429687 0-10.183594 8.253907-18.433594 18.433594-18.433594 10.179688 0 18.433594 8.25 18.433594 18.433594zm0 0" fill="#ff5757"/><path d="m402.589844 228.964844c0 10.171875-8.25 18.433594-18.425782 18.433594-8.496093 0-15.644531-5.746094-17.785156-13.5625 2.285156 1.019531 4.820313 1.585937 7.488282 1.585937 10.171874 0 18.421874-8.25 18.421874-18.425781 0-1.699219-.226562-3.335938-.65625-4.890625 6.457032 2.871093 10.957032 9.339843 10.957032 16.859375zm0 0" fill="#ff4343"/><path d="m440.558594 176.976562h-23.046875v-45.53125h17.894531c2.84375 0 5.148438 2.304688 5.148438 5.148438v40.382812zm0 0" fill="#5a5a5a"/></svg>